<svg width="22" height="21" viewBox="0 0 22 21" fill="none" xmlns="http://www.w3.org/2000/svg">
<mask id="maskTrello" mask-type="alpha" maskUnits="userSpaceOnUse" x="3" y="2" width="16" height="16">
<path fill-rule="evenodd" clip-rule="evenodd" d="M5 2C3.895 2 3 2.896 3 4V16C3 17.105 3.896 18 5 18H17C18.105 18 19 17.104 19 16V4C19 2.895 18.104 2 17 2H5ZM13 4.08C12.47 4.08 12.04 4.51 12.04 5.04V10.12C12.04 10.65 12.47 11.08 13 11.08H15.96C16.49 11.08 16.92 10.65 16.92 10.12V5.04C16.92 4.51 16.49 4.08 15.96 4.08H13ZM6.04 4.08C5.51 4.08 5.08 4.51 5.08 5.04V14.12C5.08 14.65 5.51 15.08 6.04 15.08H9C9.53 15.08 9.96 14.65 9.96 14.12V5.04C9.96 4.51 9.53 4.08 9 4.08H6.04Z" fill="#0079BF"/>
</mask>
<g mask="url(#maskTrello)">
<rect width="22" height="21" fill="#242748"/>
</g>
</svg>
